<?xml version="1.0" encoding="UTF-8" standalone="no"?>
<svg xmlns="http://www.w3.org/2000/svg" height="300" width="600" viewBox="0 0 250 125">
  <g transform="matrix(1.25,0,0,-1.25,0,125)">
    <g stroke="#000" stroke-width=".5">
      <path d="m22.9566 0.25v99.5"/>
      <path d="m17.2871 2.25977h11.3387"/>
      <path d="m17.2871 44.4379h11.3387"/>
      <path d="m17.2871 86.6156h11.3387"/>
      <path d="m20.1219 12.8043h5.6691"/>
      <path d="m20.1219 23.3488h5.6691"/>
      <path d="m20.1219 33.8934h5.6691"/>
      <path d="m20.1219 54.9824h5.6691"/>
      <path d="m20.1219 65.527h5.6691"/>
      <path d="m20.1219 76.0711h5.6691"/>
      <path d="m20.1219 97.1602h5.6691"/>
      <path d="m0.25 44.4379h199.5"/>
      <path d="m22.9566 50.107v-11.3386"/>
      <path d="m66.0121 50.107v-11.3386"/>
      <path d="m109.068 50.107v-11.3386"/>
      <path d="m152.123 50.107v-11.3386"/>
      <path d="m195.179 50.107v-11.3386"/>
      <path d="m1.42891 47.2723v-5.6692"/>
      <path d="m12.1926 47.2723v-5.6692"/>
      <path d="m33.7203 47.2723v-5.6692"/>
      <path d="m44.4844 47.2723v-5.6692"/>
      <path d="m55.248 47.2723v-5.6692"/>
      <path d="m76.7758 47.2723v-5.6692"/>
      <path d="m87.5398 47.2723v-5.6692"/>
      <path d="m98.3035 47.2723v-5.6692"/>
      <path d="m119.831 47.2723v-5.6692"/>
      <path d="m130.595 47.2723v-5.6692"/>
      <path d="m141.359 47.2723v-5.6692"/>
      <path d="m162.887 47.2723v-5.6692"/>
      <path d="m173.651 47.2723v-5.6692"/>
      <path d="m184.414 47.2723v-5.6692"/>
    </g>
    <path d="m22.9566 44.4379c0.5704 1.7621 1.1446 3.5242 1.7223 5.2863 0.5684 1.7344 1.1406 3.4692 1.7219 5.2028 0.5637 1.68 1.1359 3.3593 1.7222 5.0375 0.559 1.5988 1.1305 3.1968 1.7223 4.7925 0.5535 1.4926 1.1246 2.984 1.7223 4.4723 0.5472 1.3633 1.1172 2.7242 1.7222 4.0812 0.5403 1.2125 1.109 2.4219 1.7223 3.6258 0.5317 1.0434 1.0969 2.0828 1.7223 3.1137 0.5211 0.859 1.0836 1.7117 1.7222 2.5516 0.5047 0.6644 1.0571 1.3203 1.7223 1.95 0.4902 0.4644 1.0418 0.914 1.7219 1.3172 0.4742 0.2808 1.0207 0.5414 1.7222 0.6636 0.5571 0.0973 1.1653 0.0973 1.7223 0 0.7016-0.1222 1.2485-0.3828 1.7223-0.6636 0.6801-0.4032 1.2316-0.8528 1.7222-1.3172 0.6649-0.6297 1.2172-1.2856 1.7223-1.95 0.6383-0.8399 1.2012-1.6926 1.7223-2.5516 0.6254-1.0309 1.1906-2.0703 1.7222-3.1137 0.6133-1.2039 1.1817-2.4133 1.7219-3.6258 0.6051-1.357 1.175-2.7179 1.7223-4.0812 0.598-1.4883 1.1687-2.9797 1.7222-4.4723 0.5918-1.5957 1.1637-3.1937 1.7223-4.7925 0.5863-1.6782 1.1586-3.3575 1.7223-5.0375 0.5816-1.7336 1.1539-3.468 1.7222-5.2028 0.577-1.7621 1.1497-3.5242 1.7223-5.2863 0.5727-1.7625 1.1449-3.5246 1.7223-5.2863 0.5679-1.7348 1.1406-3.4696 1.7219-5.2032 0.5636-1.68 1.1359-3.3593 1.7222-5.0375 0.559-1.5988 1.1305-3.1964 1.7223-4.7925 0.5535-1.4926 1.1246-2.9836 1.7222-4.4723 0.5477-1.3629 1.1172-2.7238 1.7223-4.0813 0.5402-1.2125 1.109-2.4218 1.7223-3.6257 0.5316-1.0434 1.0969-2.08285 1.7222-3.11332 0.5211-0.85898 1.0836-1.71211 1.7223-2.55195 0.5047-0.66406 1.057-1.32031 1.7223-1.95 0.4902-0.46406 1.0422-0.91367 1.7219-1.31719 0.4742-0.28086 1.0207-0.54141 1.7222-0.66367 0.557-0.09727 1.1653-0.09727 1.7223 0 0.7015 0.12226 1.2484 0.38281 1.7222 0.66367 0.6801 0.40352 1.2317 0.85313 1.7223 1.31719 0.6649 0.62969 1.2172 1.28594 1.7223 1.95 0.6383 0.83984 1.2012 1.69297 1.7222 2.55195 0.6254 1.03047 1.1907 2.06992 1.7223 3.11332 0.6133 1.2039 1.1817 2.4132 1.7219 3.6257 0.6051 1.3575 1.175 2.7184 1.722 4.0813 0.598 1.4887 1.169 2.9797 1.723 4.4723 0.591 1.5961 1.163 3.1937 1.722 4.7925 0.586 1.6782 1.158 3.3575 1.722 5.0375 0.582 1.7336 1.154 3.4684 1.722 5.2032 0.577 1.7617 1.15 3.5238 1.723 5.2863 0.572 1.7621 1.145 3.5242 1.722 5.2863 0.568 1.7348 1.14 3.4692 1.722 5.2028 0.563 1.68 1.136 3.3593 1.722 5.0375 0.559 1.5988 1.13 3.1968 1.722 4.7925 0.554 1.4926 1.125 2.984 1.723 4.4723 0.547 1.3633 1.117 2.7242 1.722 4.0812 0.54 1.2125 1.109 2.4219 1.722 3.6258 0.532 1.0434 1.097 2.0828 1.722 3.1137 0.521 0.859 1.084 1.7117 1.723 2.5516 0.504 0.6644 1.057 1.3203 1.722 1.95 0.49 0.4644 1.042 0.914 1.722 1.3172 0.474 0.2808 1.02 0.5414 1.722 0.6636 0.557 0.0973 1.165 0.0973 1.722 0 0.702-0.1222 1.249-0.3828 1.723-0.6636 0.68-0.4032 1.231-0.8528 1.722-1.3172 0.665-0.6297 1.217-1.2856 1.722-1.95 0.638-0.8399 1.201-1.6926 1.722-2.5516 0.626-1.0309 1.191-2.0703 1.723-3.1137 0.613-1.2039 1.181-2.4133 1.721-3.6258 0.606-1.357 1.175-2.7179 1.723-4.0812 0.598-1.4883 1.168-2.9797 1.722-4.4723 0.592-1.5957 1.164-3.1937 1.722-4.7925 0.587-1.6782 1.159-3.3575 1.723-5.0375 0.581-1.7336 1.153-3.468 1.722-5.2028 0.577-1.7621 1.149-3.5242 1.722-5.2863 0.573-1.7625 1.145-3.5246 1.722-5.2863 0.568-1.7348 1.141-3.4696 1.723-5.2032 0.563-1.68 1.135-3.3593 1.721-5.0375 0.559-1.5988 1.131-3.1964 1.723-4.7925 0.553-1.4926 1.124-2.9836 1.722-4.4723 0.548-1.3629 1.117-2.7238 1.722-4.0813 0.541-1.2125 1.109-2.4218 1.723-3.6257 0.531-1.0434 1.096-2.08285 1.722-3.11332 0.521-0.85898 1.083-1.71211 1.722-2.55195 0.505-0.66406 1.057-1.32031 1.722-1.95 0.491-0.46406 1.043-0.91367 1.722-1.31719 0.474-0.28086 1.021-0.54141 1.722-0.66367 0.557-0.09727 1.166-0.09727 1.723 0 0.702 0.12226 1.248 0.38281 1.722 0.66367 0.68 0.40352 1.232 0.85313 1.722 1.31719 0.665 0.62969 1.217 1.28594 1.723 1.95 0.638 0.83984 1.201 1.69297 1.722 2.55195 0.625 1.03047 1.19 2.06992 1.722 3.11332 0.613 1.2039 1.182 2.4132 1.722 3.6257 0.605 1.3575 1.175 2.7184 1.722 4.0813 0.598 1.4887 1.169 2.9797 1.722 4.4723 0.592 1.5961 1.164 3.1937 1.723 4.7925 0.586 1.6782 1.159 3.3575 1.722 5.0375 0.582 1.7336 1.154 3.4684 1.722 5.2032 0.578 1.7617 1.152 3.5238 1.723 5.2863" stroke="#f00" fill="none" stroke-width=".5"/>
    <g>
      <path d="m5.7781815 83.314352-0.3706064 0.05978c0.01196-0.140977 0.020926-0.292408 0.026899-0.454292 0.00598-0.161897 0.00897-0.313328 0.00897-0.454292l-0.035865-1.028134 0.3706064-0.05978c0.00797 0.185049 0.057787 0.317053 0.1494379 0.396011 0.09166 0.07895 0.2132029 0.106345 0.3646291 0.08219 0.055296-0.01022 0.1001274-0.02267 0.1344941-0.03736 0.034375-0.0147 0.085184-0.0421 0.152427-0.08219l2.9409374-1.697616-3.2159075-0.800988c-0.058277-0.01196-0.1031081-0.02092-0.1344946-0.0269-0.031378-0.006-0.058276-0.009-0.080696-0.009-0.1489355 0.04234-0.2395946 0.142959-0.2719775 0.301865-0.032373 0.158899-0.045325 0.301363-0.038854 0.427393l-0.3706064 0.059806 0.035865-1.315055c0.0000051-0.166626-0.00298-0.353424-0.00897-0.560393-0.00597-0.206973-0.014939-0.402737-0.026899-0.587292l0.3706064-0.05978c-0.00871 0.282437 0.00872 0.49165 0.052303 0.62764 0.043591 0.135987 0.1656318 0.225649 0.3661234 0.268989l4.3635962 1.064003 0.705348-0.418427c0.349435-0.18157 0.678697-0.401244 0.987786-0.659022 0.309085-0.257783 0.473965-0.576085 0.49464-0.954909 0.0045-0.03611-0.0045-0.107347-0.0269-0.213697-0.02242-0.106351-0.08518-0.210459-0.188291-0.312325-0.02989 0.188789-0.09564 0.325276-0.197259 0.40946-0.101619 0.08418-0.203237 0.131007-0.304853 0.140472-0.156912 0.0259-0.279451-0.002-0.367618-0.08369-0.08817-0.08169-0.133001-0.193273-0.134494-0.334741-0.000997-0.125279 0.03985-0.245328 0.122539-0.360146 0.08269-0.114818 0.213197-0.190035 0.391528-0.225651 0.275711-0.03462 0.504351 0.03761 0.68592 0.216685 0.181565 0.179076 0.275711 0.421664 0.282438 0.727764-0.0142 0.377329-0.156165 0.713565-0.425898 1.008706-0.269738 0.295139-0.582063 0.5447-0.936977 0.748685l-5.1048045 2.952897c-0.361387 0.233366-0.5830533 0.471969-0.6649998 0.715808-0.081937 0.243827-0.1153114 0.419665-0.1001232 0.527517z"/>
      <path d="m13.429411 86.158959c-0.01395 0.004-0.03686-0.001-0.06874-0.01494-0.03188-0.01395-0.09664-0.06077-0.194269-0.140472-0.777827-0.602737-1.669971-0.954414-2.676436-1.055033-1.0064644-0.100624-1.9793052-0.06376-2.9185256 0.110584-1.0522892 0.163632-2.067969 0.46998-3.0470425 0.919044-0.9790614 0.449058-1.848292 1.099113-2.6076944 1.950167-0.068982 0.08592-0.1163039 0.138225-0.141966 0.15691-0.025645 0.01867-0.046068 0.02615-0.06127 0.02242-0.041585 0.01095-0.071971 0.007-0.091157-0.01196-0.019169-0.01893-0.028633-0.04683-0.028393-0.08369 0.00225-0.08768 0.201003-0.363638 0.596258-0.827887 0.3952718-0.464258 0.9735965-0.949433 1.734976-1.455527 0.6645071-0.412452 1.3110752-0.723282 1.9397061-0.932493 0.6286403-0.209215 1.1975007-0.352676 1.706583-0.430382 0.4789517-0.08792 1.0483102-0.133251 1.7080774-0.135989 0.6597697-0.0027 1.333735 0.09838 2.021897 0.30336 0.736977 0.258276 1.295377 0.548684 1.675201 0.871224 0.379819 0.322534 0.570601 0.526268 0.572348 0.611202 0.000246 0.03661-0.0092 0.06799-0.02839 0.09415-0.01918 0.02615-0.04957 0.04259-0.09116 0.04931z"/>
      <path d="m10.5602 93.409004-0.370606 0.05978c0.0062-0.313079-0.0122-0.544708-0.05529-0.694887-0.04309-0.150191-0.1481918-0.277213-0.3153139-0.381067l-2.068223-1.25528c-0.2356109 0.227889-0.4786966 0.462506-0.7292578 0.703853-0.2505541 0.241338-0.4577747 0.449057-0.6216624 0.623157-0.213443 0.222159-0.3693565 0.462256-0.4677411 0.720292-0.098375 0.258023-0.1496824 0.528008-0.1539213 0.809954l-0.3706064 0.05978c0.01196-0.157913 0.020926-0.323291 0.026899-0.496135 0.00598-0.172856 0.00897-0.338234 0.00897-0.496134-0.0007422-0.194524-0.00523-0.409216-0.01345-0.644078-0.00821-0.234872-0.015686-0.398755-0.022415-0.491651l0.3706064-0.05978c0.013952 0.118051 0.054799 0.198748 0.122539 0.242089 0.06775 0.04333 0.1504389 0.05828 0.2480674 0.04483 0.096641-0.02167 0.1813224-0.05903 0.2540448-0.112078 0.072731-0.05306 0.1275245-0.09938 0.1643818-0.138977l0.9324867-0.896632-1.2074597-0.729258c-0.056782-0.04558-0.098625-0.07099-0.1255282-0.07621-0.026894-0.0052-0.056782-0.0037-0.089663 0.0045-0.090156 0.01494-0.1608905 0.06575-0.2122022 0.152427-0.051302 0.08667-0.080194 0.191277-0.086674 0.31382l-0.3706064 0.05978 0.035865-1.3031c0.0000051-0.136489-0.00298-0.314819-0.00897-0.534989-0.00597-0.220173-0.014939-0.416435-0.026899-0.588786l0.3706064-0.05978c-0.014441 0.392274 0.017439 0.656779 0.09564 0.793516 0.07821 0.136734 0.289416 0.302611 0.6336174 0.497629l1.542201 0.920539c0.3305093-0.312329 0.5721006-0.539474 0.7247746-0.681438 0.1526776-0.141968 0.3853026-0.369114 0.6978759-0.681437 0.3332478-0.351182 0.539472-0.679945 0.618674-0.986292 0.0792-0.306349 0.112078-0.527517 0.09863-0.663505l0.370611-0.05977c-0.01196 0.158404-0.02092 0.325774-0.0269 0.502112-0.006 0.176336-0.009 0.343706-0.009 0.502111l0.03586 1.123775-0.370606 0.05978c-0.01992-0.123289-0.06376-0.20548-0.131506-0.246573-0.067745-0.0411-0.1474449-0.05455-0.2391009-0.04035-0.124531 0.02217-0.3028603 0.142213-0.5349885 0.360146-0.2321255 0.217928-0.5598927 0.544201-0.9833023 0.978819l1.1955046 0.705348c0.06949 0.0396 0.1427143 0.07994 0.2196739 0.121045 0.076961 0.04109 0.1352421 0.06052 0.1748426 0.05828 0.058779-0.005 0.1205466-0.04583 0.1853026-0.12254 0.06476-0.07671 0.102615-0.195269 0.113574-0.355662l0.370606-0.05978-0.03586 1.3031c0 0.166121 0.003 0.350925 0.009 0.554416 0.006 0.203479 0.01494 0.39725 0.0269 0.581314z"/>
      <path d="m7.5714384 97.79732c-0.4789456 0.087915-1.0483042 0.133245-1.7080773 0.135989-0.6597637 0.002735-1.3337288-0.098384-2.0218971-0.303359-0.7369715-0.264011-1.2953712-0.557906-1.675201-0.881685-0.3798129-0.323785-0.5705953-0.528017-0.5723477-0.612696 0.0005073-0.03661 0.011466-0.068 0.032876-0.09415 0.021428-0.02615 0.05032-0.04259 0.086674-0.04931 0.013707-0.004 0.037119 0.004 0.070236 0.02391 0.033134 0.01992 0.1013776 0.07571 0.2047301 0.167371 0.5942734 0.488161 1.3603918 0.814932 2.2983577 0.980313 0.9379783 0.165375 2.0328602 0.14545 3.2846489-0.05978 1.0358572-0.162891 2.0455595-0.467744 3.02911-0.914562 0.983551-0.446821 1.858759-1.098371 2.625627-1.954649 0.06899-0.08643 0.11631-0.140722 0.141967-0.162888 0.02565-0.02217 0.04607-0.03163 0.06127-0.02839 0.03636-0.0057 0.06525-0.00025 0.08667 0.01644s0.03238 0.04309 0.03288 0.0792c-0.0022 0.08817-0.200997 0.366123-0.596258 0.833865-0.395266 0.467739-0.973591 0.954907-1.734976 1.461504-0.664502 0.407216-1.3110703 0.716552-1.9397071 0.92801-0.6286342 0.211451-1.1974944 0.356406-1.7065825 0.434865z"/>
      <path d="m197.8088 29.7602 0.0598 0.370606c-0.31308-0.0062-0.54471 0.0122-0.69489 0.05529-0.15019 0.04309-0.27721 0.148192-0.38107 0.315314l-1.25527 2.068223c0.22788 0.235611 0.4625 0.478696 0.70385 0.729258 0.24134 0.250554 0.44905 0.457774 0.62316 0.621662 0.22215 0.213443 0.46225 0.369357 0.72029 0.467741 0.25802 0.09837 0.528 0.149683 0.80995 0.153922l0.0598 0.370606c-0.15792-0.01196-0.32329-0.02093-0.49614-0.0269-0.17285-0.006-0.33823-0.009-0.49613-0.009-0.19453 0.000742-0.40922 0.0052-0.64408 0.01345-0.23487 0.0082-0.39876 0.01569-0.49165 0.02242l-0.0598-0.370607c0.11805-0.01395 0.19875-0.0548 0.24209-0.122539 0.0433-0.06775 0.0583-0.150438 0.0448-0.248067-0.0217-0.09664-0.059-0.181322-0.11208-0.254045-0.0531-0.07273-0.0994-0.127524-0.13897-0.164382l-0.89663-0.932489-0.72926 1.207459c-0.0456 0.05678-0.071 0.09862-0.0762 0.125529-0.005 0.02689-0.004 0.05678 0.004 0.08966 0.0149 0.09016 0.0658 0.16089 0.15242 0.212202 0.0867 0.0513 0.19128 0.08019 0.31382 0.08667l0.0598 0.370606-1.3031-0.03587c-0.13649-0.000005-0.31482 0.003-0.53499 0.009s-0.41643 0.01494-0.58878 0.0269l-0.0598-0.370606c0.39227 0.01444 0.65678-0.01744 0.79352-0.09564 0.13673-0.07821 0.30261-0.289416 0.49763-0.633618l0.92053-1.542201c-0.31232-0.330509-0.53947-0.5721-0.68143-0.724774-0.14197-0.152678-0.36912-0.385303-0.68144-0.697876-0.35118-0.333248-0.67995-0.539472-0.98629-0.618674-0.30635-0.0792-0.52752-0.112078-0.66351-0.09863l-0.0598-0.370611c0.1584 0.01196 0.32578 0.02092 0.50211 0.0269 0.17634 0.006 0.34371 0.009 0.50211 0.009l1.12378-0.03586 0.0598 0.370606c-0.12328 0.01993-0.20548 0.06376-0.24657 0.131506-0.0411 0.06774-0.0546 0.147445-0.0403 0.239101 0.0222 0.124531 0.14222 0.30286 0.36015 0.534988 0.21793 0.232126 0.5442 0.559893 0.97882 0.983303l0.70535-1.195505c0.0396-0.06949 0.0799-0.142714 0.12104-0.219674 0.0411-0.07696 0.0605-0.135242 0.0583-0.174842-0.005-0.05878-0.0458-0.120547-0.12254-0.185303-0.0767-0.06476-0.19527-0.102615-0.35566-0.113574l-0.0598-0.370606 1.3031 0.03586c0.16612 0 0.35093-0.003 0.55442-0.009 0.20348-0.006 0.39725-0.01494 0.58131-0.0269z"/>
    </g>
    <g>
      <g stroke="#00f" stroke-width=".5" fill="#00f">
        <path d="m123.095 86.6156h-71.1106" />
        <path d="m144.623 44.4379h-71.1109"/>
        <path d="m166.151 2.25977h-71.1112"/>
        <path d="m130.595 86.6156-7.5 2.0098v-4.0191l7.5 2.0093z"/>
        <path d="m44.4844 86.6156 7.5-2.0093v4.0191l-7.5-2.0098z"/>
        <path d="m152.123 44.4379-7.5 2.0094v-4.0192l7.5 2.0098z"/>
        <path d="m66.0121 44.4379 7.5-2.0098v4.0192l-7.5-2.0094z"/>
        <path d="m173.651 2.25977-7.5 2.00937v-4.01914l7.5 2.00977z"/>
        <path d="m87.5398 2.25977 7.5-2.00977v4.01914l-7.5-2.00937z"/>
      </g>
      <g fill="#00f">
        <path d="m85.871251 88.628235c-0.000256 0.01718-0.0057 0.03362-0.01644 0.04931-0.01072 0.01569-0.02516 0.03512-0.04334 0.05828-0.05854 0.0655-0.108847 0.14371-0.150932 0.234619-0.0421 0.09091-0.08344 0.196012-0.124034 0.315314l-2.438829 6.802421c-0.135495 0.338719-0.339726 0.566861-0.612696 0.684427-0.272977 0.117549-0.554916 0.172343-0.84582 0.164381-0.03512 0.0027-0.07846-0.0027-0.130011-0.01644-0.05156-0.01371-0.07995-0.05206-0.08518-0.115067 0.0045-0.04683 0.02241-0.07871 0.0538-0.09564 0.03138-0.01694 0.04931-0.02491 0.0538-0.02391 0.186297-0.02043 0.327765-0.08718 0.424404-0.200247 0.09663-0.113082 0.214192-0.365134 0.352674-0.756156l1.159639-3.251773-3.299592-3.275683c-0.07173-0.06849-0.125529-0.128766-0.161394-0.18082-0.03587-0.05205-0.0538-0.115316-0.0538-0.189786 0.003-0.103361 0.03885-0.186549 0.107595-0.249562 0.06874-0.06301 0.152426-0.09539 0.251056-0.09713 0.09414 0.003 0.171853 0.02989 0.233123 0.0807s0.115066 0.107595 0.161394 0.170359l2.881166 3.395234c0.166259-0.431566 0.333187-0.887481 0.500783-1.367746 0.167587-0.48027 0.318575-0.906075 0.452963-1.277419 0.134379-0.371345 0.23489-0.609412 0.301534-0.714203 0.08991-0.126026 0.179071-0.202738 0.267494-0.230135 0.08841-0.0274 0.210452-0.03836 0.366123-0.03288h0.263011c0.05778 0.008 0.09464 0.02491 0.110584 0.05081 0.01593 0.0259 0.02291 0.04882 0.02092 0.06874z"/>
        <path d="m107.47125 46.388046c-0.00026 0.01719-0.006 0.03362-0.0164 0.04931-0.0107 0.01569-0.0252 0.03512-0.0433 0.05828-0.0585 0.0655-0.10884 0.14371-0.15093 0.234618-0.0421 0.09091-0.0834 0.196012-0.12403 0.315314l-2.43883 6.802421c-0.1355 0.338719-0.33973 0.566861-0.6127 0.684427-0.27297 0.11755-0.55491 0.172344-0.84582 0.164382-0.0351 0.0027-0.0785-0.0027-0.13001-0.01644-0.0516-0.01371-0.0799-0.05206-0.0852-0.115068 0.004-0.04683 0.0224-0.07871 0.0538-0.09564 0.0314-0.01694 0.0493-0.02492 0.0538-0.02391 0.18629-0.02043 0.32776-0.08718 0.4244-0.200247 0.0966-0.113083 0.21419-0.365135 0.35268-0.756157l1.15963-3.251773-3.29959-3.275682c-0.0717-0.06849-0.12553-0.128767-0.16139-0.18082-0.0359-0.05206-0.0538-0.115317-0.0538-0.189787 0.003-0.103361 0.0388-0.186548 0.1076-0.249561 0.0687-0.06301 0.15242-0.09539 0.25105-0.09714 0.0941 0.003 0.17185 0.02989 0.23313 0.0807 0.0613 0.05081 0.11506 0.107596 0.16139 0.17036l2.88117 3.395233c0.16625-0.431565 0.33318-0.88748 0.50078-1.367746 0.16759-0.480269 0.31857-0.906075 0.45296-1.277418 0.13438-0.371345 0.23489-0.609413 0.30154-0.714204 0.0899-0.126026 0.17907-0.202737 0.26749-0.230134 0.0884-0.0274 0.21045-0.03836 0.36612-0.03288h0.26301c0.0578 0.008 0.0946 0.02491 0.11059 0.05081 0.0159 0.0259 0.0229 0.04882 0.0209 0.06874z"/>
        <path d="m128.95135 4.2681429c-0.00025 0.017185-0.006 0.033624-0.0164 0.049315-0.0107 0.015691-0.0252 0.035118-0.0433 0.058281-0.0585 0.065504-0.10885 0.1437098-0.15094 0.2346181-0.0421 0.090908-0.0834 0.1960122-0.12403 0.3153141l-2.43883 6.8024219c-0.13549 0.338719-0.33973 0.566861-0.6127 0.684427-0.27297 0.117549-0.55491 0.172343-0.84581 0.164381-0.0351 0.0027-0.0785-0.0027-0.13002-0.01644-0.0516-0.01371-0.08-0.05206-0.0852-0.115067 0.004-0.04683 0.0224-0.07871 0.0538-0.09564 0.0314-0.01694 0.0493-0.02491 0.0538-0.02391 0.1863-0.02043 0.32776-0.08718 0.4244-0.200247 0.0966-0.113082 0.2142-0.365134 0.35268-0.756157l1.15964-3.2517726-3.2996-3.2756827c-0.0717-0.068493-0.12552-0.1287663-0.16139-0.1808201-0.0359-0.052055-0.0538-0.1153166-0.0538-0.1897863 0.003-0.1033613 0.0389-0.1865484 0.1076-0.2495615 0.0687-0.063013 0.15243-0.095391 0.25106-0.097135 0.0941 0.00299 0.17185 0.029888 0.23312 0.080697 0.0613 0.050809 0.11506 0.1075953 0.16139 0.1703594l2.88117 3.3952332c0.16626-0.4315655 0.33318-0.8874803 0.50078-1.3677456 0.16759-0.4802697 0.31858-0.9060755 0.45296-1.2774189 0.13438-0.371345 0.23489-0.6094126 0.30154-0.7142035 0.0899-0.126026 0.17907-0.2027374 0.26749-0.2301345 0.0884-0.027397 0.21045-0.038356 0.36613-0.032876h0.26301c0.0578 0.00797 0.0946 0.024907 0.11058 0.050809 0.0159 0.025902 0.0229 0.048816 0.0209 0.068741z"/>
      </g>
    </g>
  </g>
</svg>
