<?xml version="1.0" encoding="UTF-8" standalone="no"?>
<!-- Created with Inkscape (http://www.inkscape.org/) -->

<svg
   xmlns:dc="http://purl.org/dc/elements/1.1/"
   xmlns:cc="http://creativecommons.org/ns#"
   xmlns:rdf="http://www.w3.org/1999/02/22-rdf-syntax-ns#"
   xmlns:svg="http://www.w3.org/2000/svg"
   xmlns="http://www.w3.org/2000/svg"
   xmlns:sodipodi="http://sodipodi.sourceforge.net/DTD/sodipodi-0.dtd"
   xmlns:inkscape="http://www.inkscape.org/namespaces/inkscape"
   width="9.0311108mm"
   height="9.0311117mm"
   viewBox="0 0 31.999999 32.000002"
   id="svg5931"
   version="1.1"
   inkscape:version="0.91 r13725"
   sodipodi:docname="github.svg">
  <defs
     id="defs5933" />
  <sodipodi:namedview
     id="base"
     pagecolor="#ffffff"
     bordercolor="#666666"
     borderopacity="1.0"
     inkscape:pageopacity="0.0"
     inkscape:pageshadow="2"
     inkscape:zoom="26.156248"
     inkscape:cx="15.999999"
     inkscape:cy="16.000001"
     inkscape:document-units="px"
     inkscape:current-layer="layer1"
     showgrid="false"
     inkscape:window-width="1920"
     inkscape:window-height="1020"
     inkscape:window-x="0"
     inkscape:window-y="0"
     inkscape:window-maximized="1"
     fit-margin-top="0"
     fit-margin-left="0"
     fit-margin-right="0"
     fit-margin-bottom="0" />
  <metadata
     id="metadata5936">
    <rdf:RDF>
      <cc:Work
         rdf:about="">
        <dc:format>image/svg+xml</dc:format>
        <dc:type
           rdf:resource="http://purl.org/dc/dcmitype/StillImage" />
        <dc:title></dc:title>
      </cc:Work>
    </rdf:RDF>
  </metadata>
  <g
     inkscape:label="Layer 1"
     inkscape:groupmode="layer"
     id="layer1"
     transform="translate(-461.14286,-267.79077)">
    <g
       inkscape:export-ydpi="2.6132622"
       inkscape:export-xdpi="2.6132622"
       id="g4138"
       transform="matrix(0.03125,0,0,0.03204,461.14286,267.79077)">
      <path
         d="M 512,0 C 229.25,0 0,229.25 0,512 c 0,226.25 146.688,418.125 350.156,485.812 25.594,4.688 34.938,-11.125 34.938,-24.625 0,-12.188 -0.469,-52.562 -0.719,-95.312 C 242,908.812 211.906,817.5 211.906,817.5 c -23.312,-59.125 -56.844,-74.875 -56.844,-74.875 -46.531,-31.75 3.53,-31.125 3.53,-31.125 51.406,3.562 78.47,52.75 78.47,52.75 45.688,78.25 119.875,55.625 149,42.5 4.654,-33 17.904,-55.625 32.5,-68.375 C 304.906,725.438 185.344,681.5 185.344,485.312 c 0,-55.938 19.969,-101.562 52.656,-137.406 -5.219,-13 -22.844,-65.094 5.062,-135.562 0,0 42.938,-13.75 140.812,52.5 40.812,-11.406 84.594,-17.031 128.125,-17.219 43.5,0.188 87.312,5.875 128.188,17.281 97.688,-66.312 140.688,-52.5 140.688,-52.5 28,70.531 10.375,122.562 5.125,135.5 32.812,35.844 52.625,81.469 52.625,137.406 0,196.688 -119.75,240 -233.812,252.688 18.438,15.875 34.75,47 34.75,94.75 0,68.438 -0.688,123.625 -0.688,140.5 0,13.625 9.312,29.562 35.25,24.562 C 877.438,930 1024,738.125 1024,512 1024,229.25 794.75,0 512,0 Z"
         id="path4"
         inkscape:connector-curvature="0" />
    </g>
  </g>
</svg>
