<?xml version="1.0" encoding="UTF-8" standalone="no"?>
<!-- Created with Inkscape (http://www.inkscape.org/) -->

<svg
   xmlns:dc="http://purl.org/dc/elements/1.1/"
   xmlns:cc="http://creativecommons.org/ns#"
   xmlns:rdf="http://www.w3.org/1999/02/22-rdf-syntax-ns#"
   xmlns:svg="http://www.w3.org/2000/svg"
   xmlns="http://www.w3.org/2000/svg"
   xmlns:sodipodi="http://sodipodi.sourceforge.net/DTD/sodipodi-0.dtd"
   xmlns:inkscape="http://www.inkscape.org/namespaces/inkscape"
   width="9.0382853mm"
   height="7.3452711mm"
   viewBox="0 0 32.02542 26.026551"
   id="svg4148"
   version="1.1"
   inkscape:version="0.91 r13725"
   sodipodi:docname="twitter.svg">
  <defs
     id="defs4150">
    <clipPath
       id="clipPath20-0"
       clipPathUnits="userSpaceOnUse">
      <path
         inkscape:connector-curvature="0"
         id="path18-1"
         d="m 0,10.012 1366.9,0 0,1110.9 -1366.9,0 z" />
    </clipPath>
  </defs>
  <sodipodi:namedview
     id="base"
     pagecolor="#ffffff"
     bordercolor="#666666"
     borderopacity="1.0"
     inkscape:pageopacity="0.0"
     inkscape:pageshadow="2"
     inkscape:zoom="0.8276618"
     inkscape:cx="682.34566"
     inkscape:cy="-166.51991"
     inkscape:document-units="px"
     inkscape:current-layer="layer1"
     showgrid="false"
     fit-margin-top="0"
     fit-margin-left="0"
     fit-margin-right="0"
     fit-margin-bottom="0"
     inkscape:window-width="1920"
     inkscape:window-height="1054"
     inkscape:window-x="1920"
     inkscape:window-y="0"
     inkscape:window-maximized="1" />
  <metadata
     id="metadata4153">
    <rdf:RDF>
      <cc:Work
         rdf:about="">
        <dc:format>image/svg+xml</dc:format>
        <dc:type
           rdf:resource="http://purl.org/dc/dcmitype/StillImage" />
        <dc:title></dc:title>
      </cc:Work>
    </rdf:RDF>
  </metadata>
  <g
     inkscape:label="Layer 1"
     inkscape:groupmode="layer"
     id="layer1"
     transform="translate(310.29842,-333.63465)">
    <g
       id="g10"
       transform="matrix(0.23429233,0,0,-0.23429233,-310.29842,359.89577)"
       style="fill:#1a1a1a;fill-opacity:1">
      <g
         id="g12"
         transform="scale(0.1,0.1)"
         style="fill:#1a1a1a;fill-opacity:1">
        <g
           id="g14"
           style="fill:#1a1a1a;fill-opacity:1">
          <g
             id="g16"
             clip-path="url(#clipPath20-0)"
             style="fill:#1a1a1a;fill-opacity:1">
            <path
               style="fill:#1a1a1a;fill-opacity:1"
               inkscape:connector-curvature="0"
               id="path22"
               d="m 1366.9,989.39 c -50.27,-22.309 -104.33,-37.387 -161.05,-44.18 57.89,34.723 102.34,89.679 123.28,155.15 -54.18,-32.15 -114.18,-55.47 -178.09,-68.04 -51.13,54.49 -124.02,88.55 -204.68,88.55 -154.89,0 -280.43,-125.55 -280.43,-280.43 0,-21.988 2.457,-43.398 7.258,-63.91 -233.08,11.68 -439.72,123.36 -578.04,293.01 -24.141,-41.4 -37.969,-89.567 -37.969,-140.97 0,-97.308 49.489,-183.13 124.76,-233.44 -45.969,1.437 -89.218,14.058 -127.03,35.078 -0.043,-1.18 -0.043,-2.348 -0.043,-3.52 0,-135.9 96.68,-249.22 224.96,-275 -23.512,-6.41 -48.281,-9.8 -73.86,-9.8 -18.089,0 -35.628,1.711 -52.781,5 35.711,-111.41 139.26,-192.5 262,-194.77 -96.058,-75.23 -216.96,-120.04 -348.36,-120.04 -22.621,0 -44.961,1.332 -66.918,3.91 124.16,-79.568 271.55,-125.98 429.94,-125.98 515.82,0 797.86,427.31 797.86,797.93 0,12.153 -0.28,24.223 -0.79,36.25 54.77,39.571 102.31,88.95 139.93,145.2" />
          </g>
        </g>
      </g>
    </g>
  </g>
</svg>
